<svg width="123" height="27" viewBox="0 0 123 27" fill="none" xmlns="http://www.w3.org/2000/svg">
<path d="M0 19.2569C0 20.5685 1.07314 21.6118 2.38475 21.6118H12.0281V19.2271H2.34003V16.8423H11.9237C13.2353 16.8423 14.4128 15.7543 14.4128 14.4427V14.5023V9.73281C14.4128 8.40629 13.2353 7.1543 11.9237 7.1543H2.38475C1.07314 7.1543 0 8.40629 0 9.7179V19.2569ZM12.0281 14.4576H2.34003V9.53904H12.0281V14.4576Z" fill="#18191E"/>
<path d="M44.2366 7.1543H34.6976C33.386 7.1543 32.1489 8.40629 32.1489 9.73281V19.2718V19.2122C32.1489 20.5238 33.386 21.6118 34.6976 21.6118H44.2217V23.9966H34.5337V26.3813H44.2366C45.5482 26.3813 46.6065 25.3529 46.6065 24.0413V9.73281C46.6065 8.40629 45.5631 7.1543 44.2366 7.1543ZM44.2217 19.2271H34.5337V9.53904H44.2217V19.2271Z" fill="#18191E"/>
<path d="M25.6961 7.1543H18.5418C17.2302 7.1543 16.0527 8.40629 16.0527 9.73281V21.6118H18.4375V9.53904H25.6961C27.0077 9.53904 28.1255 10.791 28.1255 12.1176V21.6118H30.5103V12.1176C30.5103 9.47943 28.3342 7.1543 25.6961 7.1543Z" fill="#18191E"/>
<path d="M60.3194 19.2271H55.0729H50.6313V14.5023V12.1176C50.6313 10.8059 51.928 9.53904 53.2545 9.53904H60.3194V21.6118H62.7041V9.73281C62.7041 8.42119 61.7204 7.1543 60.4088 7.1543H53.2545C50.6164 7.1543 48.2466 9.47943 48.2466 12.1176V19.2718C48.2466 20.5834 49.5433 21.6118 50.8698 21.6118H55.0729C57.1894 21.6118 59.4251 20.7325 60.3194 19.2718V21.6118" fill="#18191E"/>
<path d="M115.02 0H112.635V21.6118H115.02V9.53899H122.323V7.15424H115.02V0Z" fill="#18191E"/>
<path d="M76.2675 7.15424H67.0266C65.715 7.15424 64.3438 8.40623 64.3438 9.73275V19.2717V19.2121C64.3438 20.5237 65.715 21.6118 67.0266 21.6118H78.8013V0H76.2675V7.15424ZM76.2675 19.227H66.7285V9.53899H76.2675V19.227Z" fill="#18191E"/>
<path d="M96.5381 19.2718C96.5381 20.5834 97.9093 21.6118 99.2358 21.6118H108.611V19.2271H98.9228V16.8423H108.775C110.086 16.8423 110.996 15.7543 110.996 14.4427V14.5023V9.73281C110.996 8.42119 110.086 7.1543 108.775 7.1543H99.2358C97.9242 7.1543 96.5381 8.40629 96.5381 9.73281V19.2718ZM108.611 14.4576H98.9228V9.53904H108.611V14.4576Z" fill="#18191E"/>
<path d="M92.6021 7.1543H83.0632C81.7515 7.1543 80.4399 8.40629 80.4399 9.73281V19.2718V19.2122C80.4399 20.5238 81.7515 21.6118 83.0632 21.6118H92.5127V23.9966H82.9737V26.3813H92.6021C93.9138 26.3813 94.8975 25.3529 94.8975 24.0413V9.73281C94.8975 8.40629 93.9138 7.1543 92.6021 7.1543ZM92.5127 19.2271H82.9737V9.53904H92.5127V19.2271Z" fill="#18191E"/>
</svg>
