<svg width="123" height="19" viewBox="0 0 123 19" fill="none" xmlns="http://www.w3.org/2000/svg">
<path fill-rule="evenodd" clip-rule="evenodd" d="M58.0674 5.30491C58.0674 7.73885 57.7893 15.3884 57.7893 15.3884C57.7893 16.8487 58.2761 17.5441 59.6669 17.5441V18.17H54.2427V17.5441C55.6335 17.5441 56.3984 16.9183 56.3984 15.3884L56.8852 2.94052C56.468 1.96694 56.0507 1.61924 55.0076 1.5497V0.923828H59.1801L63.6307 12.5372L68.1509 0.923828H71.9061V1.48016C70.863 1.48016 70.2371 1.96694 70.2371 3.14914L70.7239 15.1797C70.7239 16.9878 71.0716 17.4746 72.532 17.4746V18.1005H66.2037V17.4746C67.4555 17.4746 68.0118 17.0573 67.9423 15.1797C67.9423 15.1797 67.6641 6.76527 67.5945 5.23537L64.5347 13.5803C64.1175 14.6234 63.7003 15.8751 63.4221 17.1964L62.4485 17.266C62.1704 16.3619 61.5445 14.6929 61.5445 14.6929C61.5445 14.6929 58.9715 7.66931 58.0674 5.30491Z" fill="#18191E"/>
<path fill-rule="evenodd" clip-rule="evenodd" d="M52.9204 18.2376C52.5727 18.1681 52.2946 18.1681 51.9469 18.1681C51.321 18.1681 50.1388 18.5158 48.748 18.5158C43.3933 18.5158 39.499 15.3169 39.499 9.40593C39.499 4.39897 43.1847 0.574219 48.8175 0.574219C50.1388 0.574219 51.5992 0.852383 52.8509 1.33917C53.1291 1.06101 53.1986 0.921924 53.4072 0.713301H53.894C53.8245 1.61733 53.4768 4.53806 53.4768 4.53806H52.99C52.6423 2.79953 51.7382 1.68687 48.8871 1.68687C45.4796 1.68687 42.3502 4.39897 42.3502 9.40593C42.3502 15.0387 45.5491 17.5422 49.0957 17.5422C51.3905 17.5422 52.7814 16.2209 53.6854 14.6215L54.2417 14.8997L52.9204 18.2376Z" fill="#18191E"/>
<path fill-rule="evenodd" clip-rule="evenodd" d="M37.4125 4.12317H36.8561C36.7866 2.59327 36.2998 2.10648 35.0481 2.10648H32.6837V14.9716C32.6837 17.1273 33.1009 17.5446 34.4918 17.5446V18.1705H28.3721V17.5446C29.763 17.5446 30.1802 17.1273 30.1802 14.902V2.10648H27.8158C26.2859 2.10648 26.0078 2.52373 25.5905 4.12317H25.0342L25.4514 0.4375L25.8687 0.507041C26.0078 0.924287 26.3555 0.924287 27.329 0.924287H35.2567C36.7171 0.924287 37.0648 0.924287 37.4125 0.4375H37.8993L37.4125 4.12317Z" fill="#18191E"/>
<path fill-rule="evenodd" clip-rule="evenodd" d="M20.0972 18.5853C18.9845 18.5853 18.0805 18.4463 17.3851 18.1681C16.7592 18.029 16.2725 17.7508 15.9943 17.6118C15.6466 17.9595 15.438 18.3767 15.438 18.3767L14.9512 18.2376L15.2989 14.2738L15.8552 14.3433C16.2029 16.1514 17.3851 17.4727 19.9581 17.4727C21.9053 17.4727 23.2266 15.8037 23.2266 14.0652C23.2266 12.6048 22.6702 11.8399 20.6535 10.3795C20.0277 9.96225 19.4018 9.61455 18.915 9.26684C17.1069 8.15419 15.9943 6.83291 15.9943 4.67714C15.9943 2.2432 18.011 0.574219 20.7231 0.574219C22.253 0.574219 23.2961 1.06101 23.5743 1.20009L24.1306 0.574219L24.5478 0.64376L24.1306 4.19035L23.6438 4.05127C23.6438 2.38228 22.6702 1.68687 21.0012 1.68687C19.4713 1.68687 18.2891 2.52137 18.2891 4.05127C18.2891 5.44209 19.3323 6.34612 20.584 7.18061C21.2099 7.59786 21.6966 7.94557 22.253 8.22373C25.1042 10.2404 25.7996 11.5617 25.7996 13.5784C25.7996 16.4296 23.5743 18.5853 20.0972 18.5853Z" fill="#18191E"/>
<path fill-rule="evenodd" clip-rule="evenodd" d="M10.7093 4.1224H10.0834C10.0834 2.66204 9.45758 2.10571 8.1363 2.10571H4.45062V8.57303H6.81502C8.06676 8.57303 8.27538 7.94716 8.484 6.8345H9.04033V11.4242H8.484C8.34492 10.1725 8.06676 9.68568 6.74548 9.68568H4.45062V15.1794C4.45062 17.1961 4.93741 17.4743 6.25869 17.4743V18.1001H0V17.4743C1.5299 17.4743 1.80807 17.057 1.80807 15.1794V3.14883C1.80807 2.03617 1.32128 1.47984 0 1.47984V0.923515H8.55354C10.0139 0.923515 10.3616 0.853974 10.5702 0.367188H11.1266L10.7093 4.1224Z" fill="#18191E"/>
<path fill-rule="evenodd" clip-rule="evenodd" d="M99.0961 5.09629V14.9711C99.0961 17.1269 99.5829 17.5441 100.904 17.5441V18.17H91.2379V17.5441C92.0029 17.5441 92.6287 17.266 92.6287 16.7792C92.6287 16.4315 92.5592 15.8751 92.3506 15.3188L91.5856 12.9544H86.231C86.1614 13.3021 85.1879 16.0142 85.1879 16.7096C85.1879 17.3355 85.9528 17.5441 86.4396 17.5441V18.17H81.9194V17.5441C82.7539 17.5441 83.3798 17.4746 83.9361 15.7361L88.1086 2.38419C87.8304 1.82786 87.5523 1.61924 86.9959 1.5497V0.923828H90.6816L95.1322 14.9016C95.5495 16.3619 95.9667 17.1269 96.5926 17.4746C97.5662 17.1269 97.8443 16.8487 97.8443 14.9016V3.14914C97.0794 2.17557 97.0098 1.48016 95.619 1.48016V0.923828H99.7915L106.676 12.6067V3.70547C106.676 1.8974 106.259 1.48016 104.868 1.48016V0.923828H114.047V1.48016C113.491 1.48016 113.004 1.75832 113.004 2.31465C113.004 2.73189 113.143 3.14914 113.352 3.63593L115.995 9.26875L118.568 3.77501C118.985 3.01006 119.054 2.66235 119.054 2.24511C119.054 1.75832 118.707 1.48016 118.011 1.48016V0.923828H122.323V1.48016C121.28 1.48016 120.584 2.45373 120.097 3.63593L116.759 10.5205V15.0407C116.759 16.9878 117.246 17.4746 118.568 17.4746V18.1005H112.309V17.4746C113.63 17.4746 114.117 16.9878 114.117 15.0407V11.2159L110.501 3.56639C109.875 2.10603 109.597 1.75832 109.18 1.5497C108.345 1.8974 108.136 2.45373 108.136 3.77501V16.3619C108.136 16.3619 108.206 17.3355 108.275 18.5177L107.232 18.5872L99.0961 5.09629ZM88.8735 4.33134L86.5787 11.7722H91.3075L88.8735 4.33134Z" fill="#18191E"/>
<path fill-rule="evenodd" clip-rule="evenodd" d="M78.7195 11.7722C78.7195 11.7722 77.9545 11.7722 77.4677 11.7722V15.3188C77.4677 17.1269 77.9545 17.5441 79.3453 17.5441V18.17H73.0171V17.5441C74.3384 17.5441 74.8252 17.0573 74.8252 15.2493V3.63593C74.8252 1.82786 74.3384 1.48016 73.0171 1.48016V0.923828H77.7459C82.3356 0.923828 85.0477 2.31465 85.0477 6.06986C85.1172 10.0337 81.8488 11.7722 78.7195 11.7722ZM77.885 2.10603H77.4677V10.5205H78.2327C80.9448 10.5205 82.3356 9.26875 82.3356 6.20894C82.3356 3.0796 81.0838 2.10603 77.885 2.10603Z" fill="#18191E"/>
<path fill-rule="evenodd" clip-rule="evenodd" d="M50.1394 14.8328C47.0101 14.8328 44.9238 12.6075 44.9238 9.40857C44.9238 6.34877 47.1491 3.98438 50.1394 3.98438C53.0601 3.98438 55.2854 6.27923 55.2854 9.40857C55.2854 12.4684 52.9906 14.8328 50.1394 14.8328ZM50.1394 5.02749C47.9836 5.02749 47.2882 7.11372 47.2882 9.47812C47.2882 11.7034 47.9141 13.9287 50.1394 13.9287C52.2952 13.9287 52.921 11.7034 52.921 9.40857C52.921 7.18326 52.0866 5.02749 50.1394 5.02749Z" fill="#18191E"/>
<path fill-rule="evenodd" clip-rule="evenodd" d="M14.1155 13.8573V13.301C14.95 13.301 15.0891 13.0228 15.0891 12.8142C15.0891 12.4665 15.0196 12.2579 14.95 11.9797C14.95 11.9797 14.8109 11.3538 14.6023 10.867H11.4034L11.0557 11.9101C10.9862 12.1883 10.9166 12.3969 10.9166 12.7446C10.9166 13.0923 11.2643 13.301 11.7511 13.301V13.8573H8.55225V13.301C9.38674 13.301 9.6649 13.0228 10.0126 12.1883L12.4465 4.81696C12.377 4.46926 12.0988 4.26063 11.6121 4.26063V3.63477H14.2546C16.4104 9.89346 16.9667 11.4929 16.9667 11.4929C17.384 12.8837 17.8012 13.301 18.4271 13.301V13.8573H14.1155ZM12.9333 5.92962L11.6816 9.963H14.2546L12.9333 5.92962Z" fill="#18191E"/>
</svg>
