<svg width="91" height="23" viewBox="0 0 91 23" fill="none" xmlns="http://www.w3.org/2000/svg">
<path fill-rule="evenodd" clip-rule="evenodd" d="M55.0752 6.54641C53.6353 6.54641 52.4954 6.84639 51.3555 7.50633C51.3555 4.20661 51.3555 1.14687 51.4755 0.126953L44.4561 1.38685V1.9868L45.176 2.10679C46.1359 2.28677 46.4359 2.82673 46.6159 4.08662C46.7959 6.60641 46.7359 19.8653 46.6159 22.0851C48.4757 22.5051 50.4556 22.805 52.4354 22.805C57.9549 22.805 61.2546 19.3853 61.2546 13.9858C61.3146 9.66615 58.6149 6.54641 55.0752 6.54641ZM52.6754 21.6051C52.2554 21.6051 51.7154 21.6051 51.4155 21.4852C51.2955 20.0453 51.2355 13.9258 51.2955 8.52625C51.8954 8.34626 52.3154 8.22627 52.8554 8.22627C55.1352 8.22627 56.3951 10.926 56.3951 14.2258C56.3951 18.4254 54.8352 21.6051 52.6754 21.6051Z" fill="#18191E"/>
<path fill-rule="evenodd" clip-rule="evenodd" d="M18.2985 0.546875H0V1.50679L1.01991 1.62678C2.3998 1.80677 2.87976 2.6467 3.11974 4.62653C3.41971 8.34622 3.29972 15.1257 3.11974 18.3654C2.93975 20.3452 2.3998 21.2451 1.01991 21.3651L0 21.5451V22.385H11.759V21.5451L10.4991 21.3651C9.11923 21.2451 8.63927 20.3452 8.39929 18.3654C8.2793 16.9855 8.21931 14.8257 8.21931 12.1259L10.7391 12.2459C12.299 12.2459 13.0189 13.5058 13.3189 15.2456H14.2788V7.80627H13.3189C13.0189 9.54612 12.299 10.806 10.7391 10.806L8.21931 10.926C8.21931 7.3863 8.3393 4.08658 8.39929 2.10674H12.059C14.8787 2.10674 16.3186 3.8466 17.3385 6.96634L18.3585 6.66636L18.2985 0.546875Z" fill="#18191E"/>
<path fill-rule="evenodd" clip-rule="evenodd" d="M24.1779 6.36523C29.3975 6.36523 31.9773 9.90494 31.9773 14.5845C31.9773 19.0242 29.0975 22.8039 23.878 22.8039C18.6584 22.8039 16.0786 19.2642 16.0786 14.5845C16.0786 10.0849 19.0184 6.36523 24.1779 6.36523ZM23.878 7.38515C21.5982 7.38515 20.9982 10.5049 20.9982 14.5245C20.9982 18.4842 22.0181 21.664 24.1179 21.664C26.5177 21.664 27.1177 18.5442 27.1177 14.5245C27.1177 10.6249 26.0978 7.38515 23.878 7.38515Z" fill="#18191E"/>
<path fill-rule="evenodd" clip-rule="evenodd" d="M62.6338 14.6459C62.6338 10.3863 65.3336 6.30664 70.6131 6.30664C74.9927 6.30664 77.0326 9.54637 77.0326 13.806H67.3734C67.2534 17.6457 69.1132 20.4655 72.8929 20.4655C74.5728 20.4655 75.4127 20.0455 76.4326 19.3255L76.8526 19.8655C75.8327 21.3054 73.5529 22.7453 70.6131 22.7453C65.9935 22.8053 62.6338 19.4455 62.6338 14.6459ZM67.4334 12.7261L72.293 12.6061C72.293 10.5063 71.993 7.38655 70.1932 7.38655C68.4533 7.38655 67.5534 10.3263 67.4334 12.7261Z" fill="#18191E"/>
<path fill-rule="evenodd" clip-rule="evenodd" d="M89.4528 7.20516C88.1929 6.66521 86.5731 6.36523 84.6532 6.36523C80.8135 6.36523 78.4137 8.64504 78.4137 11.3448C78.4137 14.0446 80.1536 15.1845 82.6734 16.0244C85.2532 16.9843 85.9731 17.7043 85.9731 18.9042C85.9731 20.1641 85.0132 21.304 83.3933 21.304C81.4135 21.304 79.9736 20.1641 78.8337 17.0443L78.1138 17.2243L78.2338 21.7839C79.4937 22.3239 81.7735 22.7439 83.7533 22.7439C87.833 22.7439 90.4127 20.644 90.4127 17.4643C90.4127 15.3045 89.2728 14.0446 86.5731 13.0247C83.6933 11.8848 82.6134 11.1648 82.6134 9.78495C82.6134 8.40506 83.5733 7.50514 84.7732 7.50514C86.6331 7.50514 87.893 8.64504 88.8529 11.4648L89.5728 11.2848L89.4528 7.20516Z" fill="#18191E"/>
<path fill-rule="evenodd" clip-rule="evenodd" d="M45.4765 6.78728C43.7367 5.76736 40.6169 6.24732 38.9371 10.027L39.0571 6.36731L32.0977 7.7472V8.34715L32.8176 8.46714C33.7775 8.58713 34.1975 9.06709 34.2575 10.447C34.4375 12.9668 34.3775 17.2864 34.2575 19.5062C34.1375 20.7661 33.7175 21.3661 32.8176 21.486L32.0977 21.606V22.446H41.7568V21.606L40.497 21.486C39.477 21.3661 39.1171 20.7661 39.0571 19.5062C38.8771 17.5264 38.8771 13.5667 38.9371 11.1069C39.477 10.387 41.7568 9.72703 43.7967 11.1069L45.4765 6.78728Z" fill="#18191E"/>
</svg>
