<svg width="107" height="53" viewBox="0 0 107 53" fill="none" xmlns="http://www.w3.org/2000/svg">
<path d="M23.4363 0.285156H26.4855V16.2327H23.4363V0.285156ZM0 18.2042V20.9325H4.82199V34.1694H7.90665V20.9325H12.7286V18.2042H0ZM27.301 0.285156V3.0135H32.513V16.2503H35.5622V3.0135H40.7742V0.285156H27.301ZM11.9132 27.1813H17.0365C16.9479 25.7379 15.9729 24.7346 14.5901 24.7346C12.9768 24.7346 12.1968 25.7027 11.9132 27.1813ZM8.86396 28.4135C8.86396 25.0162 11.1863 22.3935 14.5546 22.3935C18.2598 22.3935 20.2453 25.2099 20.2453 29.2936H11.8777C12.1082 31.0538 13.0832 32.1451 14.8205 32.1451C16.0083 32.1451 16.6997 31.6171 17.0365 30.7369H20.0503C19.6248 32.7612 17.7988 34.4862 14.8383 34.4862C11.0268 34.4862 8.86396 31.8283 8.86396 28.4135ZM20.8126 28.4311C20.8126 31.8459 23.0817 34.4686 26.716 34.4686C29.8006 34.4686 31.6975 32.5324 31.9103 30.1033H28.9674C28.7547 31.4058 27.886 32.0395 26.6451 32.0395C24.7836 32.0395 23.8972 30.5961 23.8972 28.4311C23.8972 26.2308 24.8368 24.8226 26.6805 24.8226C27.7265 24.805 28.6306 25.5619 28.7901 26.5828H31.7862C31.3784 24.1009 29.5347 22.3935 26.5564 22.3935C23.0463 22.3935 20.7948 25.0162 20.8126 28.4311ZM35.5445 18.1866H32.4953V34.1342H35.5445V27.639C35.5445 26.0724 36.5372 24.9986 37.8846 24.9986C39.161 24.9986 39.8878 25.8611 39.8878 27.0933V34.1166H42.937V26.6532C42.937 24.1537 41.3415 22.3759 38.966 22.3759C37.3882 22.3759 36.4486 22.9744 35.6154 24.1889H35.5445V18.1866ZM46.8549 22.6927H43.8766V34.1342H46.9258V27.639C46.9258 26.0724 47.9186 24.9986 49.2659 24.9986C50.5423 24.9986 51.2691 25.8611 51.2691 27.0933V34.1166H54.3183V26.6532C54.3183 24.1537 52.7228 22.3759 50.3473 22.3759C48.7695 22.3759 47.7236 23.0272 46.9258 24.2417H46.8549V22.6927ZM63.8205 28.4487C63.8205 26.2132 62.7568 24.6994 60.8954 24.6994C59.034 24.6994 57.9703 26.2132 57.9703 28.4487C57.9703 30.6841 58.9985 32.1803 60.8954 32.1803C62.7923 32.1627 63.8205 30.6841 63.8205 28.4487ZM54.8856 28.4487C54.8856 25.0338 57.3321 22.4111 60.9131 22.4111C64.4942 22.4111 66.9406 25.0514 66.9406 28.4487C66.9406 31.8635 64.4942 34.4862 60.9131 34.4862C57.3321 34.4862 54.8856 31.8459 54.8856 28.4487ZM67.5434 34.1518H70.5926V18.2042H67.5434V34.1518ZM80.1834 28.4487C80.1834 26.2132 79.1197 24.6994 77.2583 24.6994C75.3968 24.6994 74.3332 26.2132 74.3332 28.4487C74.3332 30.6841 75.3614 32.1803 77.2583 32.1803C79.1552 32.1627 80.1834 30.6841 80.1834 28.4487ZM71.2485 28.4487C71.2485 25.0338 73.695 22.4111 77.276 22.4111C80.857 22.4111 83.3035 25.0514 83.3035 28.4487C83.3035 31.8635 80.857 34.4862 77.276 34.4862C73.695 34.4862 71.2485 31.8459 71.2485 28.4487ZM92.0434 27.9382C92.0434 26.266 91.1392 24.8402 89.2955 24.8402C87.7532 24.8402 86.7072 26.0372 86.7072 27.9558C86.7072 29.8744 87.7532 31.0362 89.331 31.0362C91.2633 31.0362 92.0434 29.628 92.0434 27.9382ZM83.9771 34.4862H87.0086C87.2568 35.2079 87.9128 35.7536 89.331 35.7536C91.0683 35.7536 91.9015 34.9263 91.9015 33.3597V32.1099H91.8306C91.086 32.99 89.9869 33.5005 88.8169 33.4477C86.2463 33.4477 83.7467 31.441 83.7467 27.991C83.7467 24.5762 85.8208 22.3935 88.7282 22.3935C90.1642 22.3935 91.2279 22.9568 91.9193 23.9073H91.9547V22.7103H94.8975V33.2893C94.8975 34.8911 94.3834 35.9824 93.5325 36.7745C92.5574 37.6722 91.086 38.0595 89.3842 38.0595C86.2286 38.0595 84.2962 36.7041 83.9771 34.4862ZM96.493 37.901H98.2836C100.624 37.901 101.475 36.9857 102.343 34.451L106.368 22.7103H103.283L101.67 27.8678C101.315 28.9239 100.996 30.3673 100.996 30.3673H100.96C100.96 30.3673 100.57 28.9239 100.216 27.8678L98.514 22.7103H95.3053L98.3899 30.8602C99.0459 32.6028 99.2586 33.3421 99.2586 33.9581C99.2586 34.8911 98.7622 35.5247 97.5567 35.5247H96.4753L96.493 37.901ZM8.01302 43.2697H11.9309C13.6328 43.2697 14.5192 42.4952 14.5192 41.087C14.5192 39.6437 13.5973 38.922 11.9841 38.922H8.01302V43.2697ZM11.204 45.91H8.01302V52.0708H4.82199V36.1232H12.055C14.0937 36.1232 15.3169 36.6513 16.2565 37.6194C17.1961 38.5347 17.7102 39.7845 17.6925 41.0694C17.6925 43.3049 16.5401 44.8187 14.5192 45.4876L18.5257 52.0532H14.9446L11.204 45.91ZM20.5821 45.1003H25.7055C25.6168 43.6569 24.6418 42.6536 23.259 42.6536C21.6281 42.6536 20.848 43.6041 20.5821 45.1003ZM17.5152 46.3325C17.5152 42.9353 19.8375 40.3125 23.2058 40.3125C26.911 40.3125 28.8965 43.1289 28.8965 47.2126H20.5467C20.7771 48.9728 21.7522 50.0641 23.4895 50.0641C24.6773 50.0641 25.3687 49.5361 25.7055 48.656H28.7192C28.2938 50.6802 26.4678 52.4052 23.5072 52.4052C19.678 52.3876 17.5152 49.7473 17.5152 46.3325ZM32.2471 52.0532H35.1722L39.4446 40.6118H36.3954L33.754 48.3567H33.7008L31.0948 40.6118H27.9924L32.2471 52.0532ZM39.8878 52.0532H42.937V40.6294H39.8878V52.0532ZM39.8878 39.8197H42.937V37.0913H39.8878V39.8197ZM46.6776 45.0827H51.801C51.7123 43.6393 50.7373 42.636 49.3545 42.636C47.7236 42.636 46.9435 43.6041 46.6776 45.0827ZM43.6107 46.3149C43.6107 42.9177 45.933 40.2949 49.3013 40.2949C53.0065 40.2949 54.992 43.1113 54.992 47.195H46.6244C46.8549 48.9552 47.8299 50.0465 49.5673 50.0465C50.755 50.0465 51.4464 49.5185 51.7832 48.6384H54.797C54.3715 50.6626 52.5456 52.3876 49.585 52.3876C45.7735 52.3876 43.6107 49.7297 43.6107 46.3149ZM57.5803 52.0356H60.3458L62.4555 44.5371H62.4909L64.5296 52.0356H67.3129L70.7521 40.6118H67.7916L65.8238 47.9343H65.7883L63.7496 40.6294H61.1436L59.1935 47.9343H59.1581L57.2612 40.6294H54.212L57.5803 52.0356ZM17.5861 0.285156L13.7923 11.973L9.82127 0.285156H4.82199V16.2327H7.78256V3.61197L12.1082 16.2327H15.2283L19.3589 3.61197V16.2327H22.3904V0.285156H17.5861Z" fill="#18191E"/>
</svg>
