<svg width="128" height="19" viewBox="0 0 128 19" fill="none" xmlns="http://www.w3.org/2000/svg">
<path d="M35.7658 0.253906H23.8438V6.32572H35.7658V0.253906Z" fill="#18191E"/>
<path d="M0 0.253906V6.32572H5.98317V18.5137H11.922V6.32572H17.9052V0.253906H0Z" fill="#18191E"/>
<path d="M17.9048 18.5141H23.8436H35.81V12.4423H23.8436V6.32617H17.9048V18.5141Z" fill="#18191E"/>
<path d="M51.0107 4.86523H42.2354V7.39146H45.1605V15.3247H48.0856V7.39146H51.0107V4.86523Z" fill="#18191E"/>
<path d="M54.2921 7.30078C52.209 7.30078 50.7021 8.6747 50.7021 11.3782C50.7021 13.7715 51.9874 15.4556 54.3807 15.4556C55.6216 15.4556 56.5967 15.1454 57.5717 14.5692L56.5524 12.8408C55.7546 13.2396 55.2228 13.3726 54.5136 13.3726C53.7602 13.3726 53.2727 12.9737 53.1841 12.1316H57.7933C57.7933 11.9987 57.7933 11.8214 57.7933 11.5998C57.7933 8.71902 56.4637 7.30078 54.2921 7.30078ZM53.1841 10.4918C53.2727 9.69405 53.6273 9.29517 54.2477 9.29517C55.0455 9.29517 55.3114 9.69405 55.4444 10.4918H53.1841Z" fill="#18191E"/>
<path d="M62.8893 13.2853C62.1358 13.2853 61.7813 12.6205 61.7813 11.3796C61.7813 10.1386 62.1358 9.42948 62.8006 9.42948C63.3768 9.42948 63.6427 9.73972 63.9972 10.4488L65.8587 9.0306C65.1496 7.92261 64.3075 7.25781 62.8449 7.25781C60.3187 7.25781 59.1221 8.89764 59.1221 11.3352C59.1221 13.9944 60.496 15.457 62.8006 15.457C64.1745 15.457 65.0609 14.9251 65.9473 13.5955L64.2632 12.2659C63.7757 13.0194 63.4211 13.2853 62.8893 13.2853Z" fill="#18191E"/>
<path d="M72.1959 7.29876C71.2652 7.29876 70.7334 7.60899 70.2016 8.00787V4.41797L67.498 5.48164V15.3206H70.2016V10.8443C70.2016 9.8693 70.5561 9.60338 71.1323 9.60338C71.6641 9.60338 72.0187 9.8693 72.0187 10.8887V15.3206H74.7222V10.5341C74.7222 8.45107 73.8801 7.29876 72.1959 7.29876Z" fill="#18191E"/>
<path d="M81.1936 12.9714C79.9527 12.9714 79.4209 11.6861 79.4209 10.0906C79.4209 8.45078 79.9527 7.20982 81.1493 7.20982C82.1244 7.20982 82.4789 7.8303 82.8335 8.80533L85.4483 7.78598C84.7392 5.79159 83.7199 4.68359 81.1493 4.68359C78.3572 4.68359 76.3628 6.7223 76.3628 10.0906C76.3628 13.193 78.0026 15.4976 81.1493 15.4976C83.6312 15.4976 84.7835 14.168 85.4927 12.7941L83.0551 11.5088C82.5232 12.4839 82.1244 12.9714 81.1936 12.9714Z" fill="#18191E"/>
<path d="M89.8803 8.05422V7.47806H87.1768V15.3227H89.8803V11.0236C89.8803 10.0486 90.2791 9.73837 90.9439 9.73837C91.4758 9.73837 91.8747 10.0043 92.1849 10.4032L92.8054 7.61102C92.4951 7.43374 92.0963 7.30078 91.5201 7.30078C90.8553 7.30078 90.3235 7.61102 89.8803 8.05422Z" fill="#18191E"/>
<path d="M98.6106 11.9529C98.6106 12.9279 98.256 13.1938 97.7242 13.1938C97.1923 13.1938 96.8378 12.9279 96.8378 11.9085V7.47656H94.1343V12.2631C94.1343 14.3461 94.9764 15.4984 96.6605 15.4984C97.5912 15.4984 98.1231 15.1882 98.6106 14.7893V15.3212H101.314V7.47656H98.6106V11.9529Z" fill="#18191E"/>
<path d="M107.917 7.30078C106.987 7.30078 106.455 7.61102 105.923 8.0099V7.47806H103.264V15.3227H105.967V10.8464C105.967 9.87133 106.322 9.60541 106.898 9.60541C107.43 9.60541 107.784 9.87133 107.784 10.8907V15.3227H110.488V10.5361C110.488 8.4531 109.646 7.30078 107.917 7.30078Z" fill="#18191E"/>
<path d="M115.807 13.2853C115.053 13.2853 114.699 12.6205 114.699 11.3796C114.699 10.1386 115.053 9.42948 115.718 9.42948C116.294 9.42948 116.56 9.73972 116.915 10.4488L118.776 9.0306C118.067 7.92261 117.225 7.25781 115.762 7.25781C113.236 7.25781 112.04 8.89764 112.04 11.3352C112.04 13.9944 113.413 15.457 115.718 15.457C117.092 15.457 117.978 14.9251 118.865 13.5955L117.181 12.2659C116.693 13.0194 116.339 13.2853 115.807 13.2853Z" fill="#18191E"/>
<path d="M125.114 7.29876C124.183 7.29876 123.651 7.60899 123.12 8.00787V4.41797L120.416 5.48164V15.3206H123.12V10.8443C123.12 9.8693 123.474 9.60338 124.05 9.60338C124.582 9.60338 124.937 9.8693 124.937 10.8887V15.3206H127.64V10.5341C127.64 8.45107 126.798 7.29876 125.114 7.29876Z" fill="#18191E"/>
</svg>
