<svg width="123" height="17" viewBox="0 0 123 17" fill="none" xmlns="http://www.w3.org/2000/svg">
<path d="M86.7397 0.534779C87.3586 0.637918 87.9774 0.637918 88.4931 0.844196C90.8653 1.46303 92.103 4.35092 90.8653 6.51683C90.5559 7.03253 90.1433 7.34194 89.6276 7.65136C89.4213 7.7545 89.2151 7.85764 88.9056 8.06391C89.0088 8.16705 89.1119 8.16705 89.2151 8.16705C90.8653 8.68275 91.5873 9.92041 91.6904 11.4675C91.8967 13.7365 90.4527 15.3868 88.1837 15.593C87.4617 15.6962 86.7397 15.6962 86.1209 15.6962H79.0043V12.602H80.3451V3.5258H79.0043V0.431641C81.6859 0.534779 84.1613 0.534779 86.7397 0.534779ZM84.4707 9.611V12.602C84.4707 12.7052 84.5738 12.8083 84.677 12.8083H86.4303C86.8429 12.8083 87.2554 12.602 87.4617 12.1895C87.9774 11.2612 87.4617 10.0236 86.4303 9.81727C85.8115 9.611 85.1927 9.611 84.4707 9.611ZM84.4707 6.72311C85.0895 6.72311 85.6052 6.72311 86.224 6.61997C86.946 6.51683 87.3586 5.898 87.3586 5.17603C87.3586 4.45405 86.946 3.83522 86.3272 3.73208C85.7083 3.62894 85.0895 3.62894 84.4707 3.62894V6.72311ZM14.6457 0.534779V3.62894H14.0269C13.7175 3.5258 13.6143 3.73208 13.6143 3.93836C12.6861 7.13566 11.6547 10.2298 10.6233 13.4271C10.417 14.1491 10.2107 14.8711 9.90133 15.593C9.90133 15.6962 9.69505 15.7993 9.59191 15.7993H4.84752L4.74438 15.4899C3.50672 11.6738 2.26905 7.7545 1.13453 3.93836C1.03139 3.62894 0.928249 3.62894 0.618833 3.62894H0V0.534779H6.60088V3.62894H5.26008C5.98205 6.51683 6.70402 9.40472 7.42599 12.1895H7.52913L9.90133 3.62894H8.56052V0.534779H14.6457ZM122.219 7.7545H120.672C120.569 7.7545 120.466 7.85764 120.466 7.96077V11.88C120.466 12.7052 120.982 13.1177 121.91 12.9114H122.116V15.3868C122.116 15.593 122.116 15.6962 121.91 15.6962C120.776 15.9025 119.641 16.0056 118.403 15.7993C117.063 15.4899 116.444 14.7679 116.444 13.4271V7.65136H116.031C115.412 7.65136 115.515 7.7545 115.515 7.13566V4.55719H116.753V2.49442C116.753 1.77245 116.65 1.87558 117.372 1.77245C118.403 1.56617 119.332 1.35989 120.466 1.05047V4.55719H122.323C122.219 5.69172 122.219 6.72311 122.219 7.7545ZM25.0627 4.66033H29.4977L29.6008 6.20741C29.9103 5.898 30.1165 5.58858 30.3228 5.3823C31.5605 4.35092 33.0044 4.14464 34.5515 4.66033C35.686 5.07289 36.2017 6.00114 36.2017 7.2388V12.7052H37.13V15.7993H32.1793V8.88902C32.1793 8.27019 31.973 7.96077 31.5605 7.85764C31.0448 7.7545 30.6322 7.85764 30.3228 8.27019L30.1165 8.57961L30.0134 8.88902V12.7052H30.7354V15.7993H25.0627V12.7052H25.8878V7.7545H25.0627V4.66033ZM52.0851 7.65136H51.3631V4.55719H56.2106V12.7052H57.1389V15.7993H52.6008V14.6648C52.3945 14.8711 52.2914 15.0774 52.0851 15.1805C50.9506 16.2119 48.9909 16.4182 47.6501 15.7993C46.6187 15.2836 46.103 14.4585 46.103 13.324L45.9999 8.16705V7.7545H45.0717V4.66033H50.0223V11.2612C50.0223 11.5706 50.0223 11.88 50.1255 12.0863C50.2286 12.4989 50.6412 12.7052 51.0537 12.7052C51.4663 12.7052 51.7757 12.4989 51.982 12.0863C52.0851 11.9832 52.0851 11.7769 52.0851 11.5706V7.65136ZM110.049 8.88902V7.85764C110.049 7.2388 109.637 6.82625 109.121 6.82625C108.605 6.82625 108.089 7.2388 108.089 7.7545V8.16705H104.376C104.273 6.72311 104.995 5.48544 106.336 4.86661C108.296 4.0415 110.359 4.0415 112.318 4.96975C113.556 5.58858 114.175 6.51683 114.175 7.85764V12.4989H115.103V15.593H110.462C110.462 15.1805 110.359 14.8711 110.359 14.3554C110.255 14.4585 110.152 14.5617 110.152 14.6648C108.915 16.1087 106.646 16.1087 105.408 15.4899C104.48 14.9742 104.067 14.046 103.964 13.0146C103.861 10.7455 104.995 9.30158 107.367 8.88902L109.843 8.68275C109.74 8.88902 109.843 8.88902 110.049 8.88902ZM110.049 10.8487H109.121C108.193 10.9518 107.78 11.6738 107.883 12.4989C107.986 13.2209 108.605 13.6334 109.327 13.324C109.74 13.2209 109.946 12.9114 110.049 12.4989V10.8487ZM24.3408 10.9518H17.4305C17.4305 11.5706 17.4305 12.1895 17.7399 12.7052C17.9462 13.1177 18.4618 13.324 18.8744 13.324C19.287 13.324 19.8027 13.1177 20.0089 12.602C20.1121 12.3957 20.1121 12.1895 20.2152 11.88H24.0313C23.9282 13.1177 23.4125 14.1491 22.3811 14.8711C21.6591 15.3868 20.834 15.6962 20.0089 15.7993C18.8744 16.0056 17.6367 15.9025 16.5022 15.593C14.9551 15.0774 13.9237 14.046 13.5112 12.602C12.9955 10.9518 12.9955 9.30158 13.5112 7.65136C14.13 5.69172 15.574 4.55719 17.6367 4.24778C18.565 4.14464 19.4932 4.14464 20.4215 4.45405C22.4843 5.07289 23.6188 6.41369 24.0313 8.57961C24.2376 9.40472 24.2376 10.1267 24.3408 10.9518ZM17.5336 8.78588H20.2152C20.2152 8.16705 20.2152 7.65136 19.5964 7.34194C19.0807 7.03252 18.565 7.03252 18.1524 7.34194C17.5336 7.65136 17.5336 8.16705 17.5336 8.78588ZM78.0761 10.9518H71.1658C71.1658 11.5706 71.1658 12.1895 71.4752 12.7052C71.7846 13.2209 72.1972 13.324 72.7129 13.324C73.2286 13.324 73.6411 13.0146 73.8474 12.602L74.0537 11.9832H77.8698C77.6635 14.2522 76.0133 15.7993 73.7442 16.0056C72.6097 16.1087 71.5783 16.1087 70.5469 15.6962C68.9999 15.1805 67.9685 14.1491 67.4528 12.602C66.9371 10.9518 66.9371 9.40472 67.4528 7.7545C68.0716 5.69172 69.6187 4.66033 71.6815 4.35092C72.6097 4.24778 73.6411 4.24778 74.5694 4.55719C76.529 5.17603 77.5604 6.51683 77.9729 8.37333C78.0761 9.30158 78.0761 10.1267 78.0761 10.9518ZM71.372 8.78588H74.0537C74.0537 7.65136 73.538 7.03253 72.6097 7.13566C71.7846 7.2388 71.2689 7.85764 71.372 8.78588ZM103.448 10.9518H96.5379C96.5379 11.6738 96.5379 12.2926 96.9505 12.8083C97.2599 13.2209 97.6724 13.324 98.1881 13.324C98.7038 13.324 99.0133 13.0146 99.2195 12.602L99.4258 11.9832H103.242C103.139 13.2209 102.623 14.2522 101.592 14.9742C100.354 15.9025 99.0133 16.1087 97.5693 16.0056C96.9505 16.0056 96.4348 15.9025 95.8159 15.6962C94.2689 15.2836 93.3406 14.2522 92.8249 12.8083C92.3092 11.0549 92.2061 9.30158 92.9281 7.54822C93.65 5.69172 95.094 4.66033 97.0536 4.45405C97.9819 4.35092 99.0133 4.45405 99.9415 4.66033C101.901 5.27916 102.933 6.72311 103.345 8.68275C103.345 9.40472 103.448 10.1267 103.448 10.9518ZM99.4258 8.88902C99.4258 8.27019 99.3227 7.65136 98.807 7.34194C98.2913 7.03252 97.7756 7.03253 97.2599 7.44508C96.8473 7.7545 96.7442 8.27019 96.7442 8.88902H99.4258ZM37.6457 4.55719H38.8833V2.39128C38.8833 1.97872 38.9865 1.87558 39.399 1.77245L42.5963 1.05047V4.55719H44.3497V7.65136H42.5963V11.9832C42.6995 12.7052 43.2152 13.0146 43.834 12.9114C43.9371 12.9114 44.0403 12.9114 44.2465 12.8083V14.7679C44.2465 15.6962 44.2465 15.6962 43.3183 15.7993C42.39 15.9025 41.4618 16.0056 40.4304 15.7993C39.0896 15.4899 38.4708 14.6648 38.4708 13.324V7.65136H37.5425C37.6457 6.72311 37.6457 5.69172 37.6457 4.55719ZM57.964 15.7993V12.7052H58.8923V7.7545H57.964V4.66033H62.2958C62.2958 5.17603 62.399 5.79486 62.399 6.41369C62.5021 6.31055 62.5021 6.20741 62.5021 6.10428C62.8115 5.17603 63.5335 4.66033 64.4618 4.55719H65.9057C66.0088 4.55719 66.112 4.66033 66.112 4.76347V8.16705C65.5963 8.16705 64.9774 8.06391 64.4618 8.16705C63.3272 8.37333 62.8115 8.99216 62.7084 10.1267V12.602H63.9461V15.6962C62.0896 15.7993 60.0268 15.7993 57.964 15.7993Z" fill="#18191E"/>
</svg>
