<svg width="149" height="22" viewBox="0 0 149 22" fill="none" xmlns="http://www.w3.org/2000/svg">
<path d="M4.26208 11.7616V6.14898L2.57829 6.91434C2.57829 6.91434 2.14459 7.88379 2.22113 9.28695C2.27215 10.384 2.88443 11.6851 3.36916 12.2463L4.26208 11.7616ZM9.21138 0.204711C9.61957 0.230223 10.2829 0.434318 10.7676 0.86802C11.3034 1.37826 11.4054 2.14362 11.2268 2.85795C11.0738 3.47023 10.8697 3.80189 10.2319 4.23559C9.59406 4.66929 8.80319 4.64378 8.80319 4.64378V7.34804L10.1298 8.41954L8.80319 9.49104V13.1903C8.80319 13.1903 10.1298 12.4249 10.9462 10.7411C10.9462 10.7411 10.9717 10.6391 11.0482 10.486C11.1248 10.9452 11.0738 11.8636 10.5635 13.0372C10.2063 13.8791 9.49202 14.721 8.62461 15.2312C7.06839 16.0986 5.89484 16.1752 4.61924 15.92C3.13955 15.6139 1.81294 14.7975 0.894507 13.3433C0.25671 12.3229 -0.0239211 11.1493 0.00159082 9.87372C0.0526146 7.37355 1.91498 5.23055 4.05798 4.41417C4.3131 4.31213 4.41515 4.2611 4.79783 4.21008C4.61924 4.33764 4.44066 4.4652 4.18554 4.64378C3.49672 5.10299 2.90995 5.99591 2.65483 6.68473L6.81327 4.82236V10.6391L3.4457 12.3229C3.82838 12.8586 5.00192 13.6495 5.97137 13.777C7.65516 13.9556 8.65012 13.2158 8.65012 13.2158V9.44002L7.34902 8.36852L8.65012 7.29702V4.64378C7.93579 4.56725 7.06839 4.33764 6.55815 4.21008C5.84381 4.00598 3.34365 3.31716 2.96097 3.24063C2.57829 3.1896 2.09357 3.1896 1.78742 3.47023C1.50679 3.72535 1.3027 4.18457 1.43026 4.61827C1.50679 4.84788 1.65986 5.00095 1.78742 5.12851C1.78742 5.12851 1.63435 5.12851 1.37923 4.94992C0.920019 4.66929 0.562853 4.10803 0.511829 3.44472C0.460805 2.55181 0.843483 1.73542 1.58333 1.19968C2.22113 0.791485 2.93546 0.536366 3.77735 0.638413C5.00192 0.816997 6.66019 1.50582 8.11437 1.86298C8.67563 1.99054 9.13485 2.04157 9.51753 1.81196C9.69611 1.6844 10.0278 1.32723 9.77265 0.86802C9.4665 0.332271 8.85422 0.332271 8.34398 0.255735C8.77768 0.179199 8.87973 0.179199 9.21138 0.204711Z" fill="#18191E"/>
<path d="M25.3855 10.3102L23.4976 11.6878V7.07015L25.3855 10.3102ZM25.3344 5.87109C25.3344 5.87109 24.0588 6.63645 23.1914 7.14669C22.324 7.65693 21.176 8.21819 21.176 8.21819V13.5757L20.4106 14.188L20.5127 14.3155L21.2525 13.7032L23.5996 15.8207L27.6815 12.5807L27.5795 12.4532L25.3344 14.2135L23.4721 12.4787V11.8409L27.1968 9.1111L25.3344 5.87109Z" fill="#18191E"/>
<path d="M14.671 17.8617C15.2068 17.9892 16.1507 18.0657 17.2988 17.5045C18.5488 16.8667 19.1866 15.5401 19.1866 14.1624L19.2377 12.2235V7.96304L20.054 7.35075L19.952 7.22319L19.1356 7.80996L17.2988 5.76901L14.9517 7.78445V0.947266L12.0178 3.21782C12.1454 3.29436 12.5536 3.3709 12.5791 3.95767V13.5501L11.3545 14.4686L11.431 14.5961L12.0433 14.1369L13.7016 15.6931L16.3293 13.6267L16.2273 13.4991L15.615 13.9838L14.9517 13.346V8.01406L15.717 7.35075L16.8651 8.77942C16.8651 8.77942 16.8651 12.249 16.8651 13.3971C16.8651 14.6216 16.8651 16.1524 16.2018 16.8922C15.5895 17.6065 15.3088 17.6576 14.671 17.8617Z" fill="#18191E"/>
<path d="M32.9108 17.3756C31.8648 17.248 31.4311 16.6102 31.4311 16.1255C31.4311 15.7938 31.7373 15.1816 32.3751 15.0795C33.0129 15.003 33.6762 15.2836 34.2119 15.9469L36.6356 13.2682L36.508 13.1661L35.8447 13.906C35.1814 13.1406 34.2374 12.6814 33.319 12.5283V4.36451L39.6204 15.8449C39.6204 15.8449 39.6715 15.9724 39.9521 15.9724C40.1817 15.9724 40.1307 15.7938 40.1307 15.7938V4.23695C40.6409 4.21144 41.4318 3.93081 41.8145 3.54813C43.039 2.29805 42.5288 0.945919 42.4012 0.818359C42.3247 1.40513 41.8655 2.01742 41.1001 2.01742C40.1052 2.01742 39.4929 1.27757 39.4929 1.27757L37.0437 4.00735L37.1713 4.10939L37.8601 3.31853C38.702 4.10939 39.3398 4.16042 39.9776 4.21144V10.9211L35.2834 2.42561C34.8497 1.73679 34.2119 1.09899 33.217 1.09899C32.0434 1.09899 31.227 2.11947 31.125 2.98687C31.0229 3.98183 31.125 4.21144 31.125 4.21144C31.125 4.21144 31.3036 3.11443 31.9924 3.11443C32.6047 3.11443 32.9363 3.7012 33.1659 4.10939V6.55854C32.5281 6.60956 30.8699 6.6861 30.7678 8.39539C30.7678 9.03319 31.1505 9.6965 31.5077 9.92611C31.9669 10.2322 32.2985 10.2067 32.2985 10.2067C32.2985 10.2067 31.7628 9.92611 31.9159 9.36484C32.0689 8.85461 33.1149 8.77807 33.1404 8.98217V12.4518C32.6302 12.4518 31.0229 12.5028 30.2831 13.8804C29.8494 14.7223 29.8749 15.6663 30.3341 16.3296C30.7678 16.9164 31.5587 17.6052 32.9108 17.3756Z" fill="#18191E"/>
<path d="M46.2541 10.3102L44.3662 11.6878V7.07015L46.2541 10.3102ZM46.2031 5.87109C46.2031 5.87109 44.9275 6.63645 44.0601 7.14669C43.1927 7.65693 42.0447 8.21819 42.0447 8.21819V13.5757L41.2793 14.188L41.3813 14.3155L42.1212 13.7032L44.4683 15.8207L48.5502 12.5807L48.4481 12.4532L46.2031 14.2135L44.3407 12.4787V11.8409L48.0655 9.1111L46.2031 5.87109Z" fill="#18191E"/>
<path d="M51.9168 15.8672L49.9268 14.2089L49.0594 14.8467L48.9829 14.7191L49.8758 14.0558V9.43818C49.9268 7.52479 48.1155 8.00952 48.2175 5.96856C48.2686 5.07565 49.1105 4.41234 49.5697 4.18273C50.0289 3.95312 50.5391 3.95312 50.5391 3.95312C50.5391 3.95312 49.7227 4.46336 49.9268 5.20321C50.233 6.32573 52.1719 6.42778 52.1974 7.95849V13.1884L53.6261 14.3365L54.0087 14.0303V8.34117L53.2434 7.57581L55.2333 5.81549L57.0447 7.42274L56.3558 8.16259V13.2139L58.0651 14.6171L58.3713 14.413V8.36668L57.6059 7.65235L59.5958 5.84101L61.4582 7.37172L62.1981 6.70841L62.3001 6.83597L60.6163 8.31566V13.265L56.3303 15.8927L54.1363 14.1579L51.9168 15.8672Z" fill="#18191E"/>
<path d="M139.5 10.3102L137.612 11.6878V7.07015L139.5 10.3102ZM139.449 5.87109C139.449 5.87109 138.173 6.63645 137.306 7.14669C136.438 7.65693 135.29 8.21819 135.29 8.21819V13.5757L134.525 14.188L134.627 14.3155L135.367 13.7032L137.714 15.8207L141.796 12.5807L141.694 12.4532L139.449 14.2135L137.586 12.4787V11.8409L141.337 9.13662L139.449 5.87109Z" fill="#18191E"/>
<path d="M120.315 8.11407L120.417 8.24163L121.182 7.57832L122.33 8.85391V13.293L121.769 13.8032L123.555 15.7931L125.366 14.0073L124.626 13.2164V7.88446L125.086 7.50178L126.336 8.98147V13.395L125.851 13.8798L127.535 15.7421L129.321 13.9563L128.657 13.2675V7.88446L129.142 7.50178L130.443 8.95596V13.344L130.009 13.7777L131.846 15.7931L134.346 13.4971L134.219 13.395L133.632 13.9308L132.714 12.9103V7.90997L133.607 7.22115L133.505 7.09359L132.612 7.78241L130.928 5.89453L128.504 7.78241L126.82 5.94556L124.499 7.78241L122.79 5.97107L120.315 8.11407Z" fill="#18191E"/>
<path d="M115.289 7.98638L115.391 8.08843L116.028 7.52717L117.049 8.72623V13.8031L116.335 14.4154L116.437 14.5429L117.176 13.9051L118.809 15.793L121.182 13.6755L121.08 13.548L120.391 14.1603L119.396 13.0377V8.08843L120.238 7.3741L120.136 7.27205L119.345 7.93536L117.636 5.91992L115.289 7.98638Z" fill="#18191E"/>
<path d="M115.953 3.77729L117.738 2.14453L119.193 3.75178L117.407 5.38454L115.953 3.77729Z" fill="#18191E"/>
<path d="M108.63 11.7605V6.1479L106.946 6.91325C106.946 6.91325 106.513 7.88271 106.589 9.28586C106.64 10.3829 107.253 11.684 107.737 12.2452L108.63 11.7605ZM113.58 0.203626C113.988 0.229138 114.651 0.433233 115.136 0.866936C115.672 1.37717 115.774 2.14253 115.595 2.85686C115.442 3.46915 115.238 3.8008 114.6 4.23451C113.962 4.66821 113.171 4.6427 113.171 4.6427V7.34696L114.498 8.41846L113.171 9.48995V13.1892C113.171 13.1892 114.498 12.4238 115.314 10.74C115.314 10.74 115.34 10.638 115.416 10.4849C115.493 10.9441 115.442 11.8626 114.932 13.0361C114.549 13.929 113.835 14.7709 112.967 15.2556C111.411 16.123 110.237 16.1996 108.987 15.9445C107.508 15.6383 106.181 14.8219 105.263 13.3678C104.625 12.3473 104.344 11.1737 104.37 9.89814C104.421 7.39798 106.283 5.25498 108.426 4.4386C108.681 4.33655 108.783 4.28553 109.166 4.23451C108.987 4.36206 108.809 4.48962 108.554 4.66821C107.865 5.12742 107.278 6.02034 107.023 6.70916L111.181 4.84679V10.6635L107.839 12.3473C108.222 12.883 109.396 13.6739 110.365 13.8015C112.049 13.98 113.044 13.2402 113.044 13.2402V9.46444L111.743 8.39294L113.044 7.32144V4.6427C112.329 4.56616 111.462 4.33655 110.952 4.20899C110.212 4.03041 107.712 3.31608 107.329 3.26505C106.946 3.21403 106.462 3.21403 106.156 3.49466C105.875 3.74978 105.671 4.20899 105.798 4.6427C105.875 4.8723 106.028 5.02537 106.156 5.15293C106.156 5.15293 106.003 5.15293 105.747 4.97435C105.288 4.69372 104.931 4.13246 104.88 3.46915C104.829 2.57623 105.186 1.78536 105.926 1.2241C106.564 0.815912 107.278 0.560793 108.12 0.66284C109.345 0.841424 111.003 1.53024 112.457 1.88741C113.018 2.01497 113.477 2.06599 113.86 1.83639C114.039 1.70883 114.37 1.35166 114.115 0.892447C113.809 0.356698 113.197 0.356698 112.687 0.280162C113.146 0.178115 113.248 0.178115 113.58 0.203626Z" fill="#18191E"/>
<path d="M144.756 6.9156V9.56884L145.649 10.3342C145.649 10.3342 147.562 8.80348 148.277 7.37481C148.277 7.37481 147.409 8.54836 146.236 8.1912C145.266 7.88505 144.756 6.9156 144.756 6.9156ZM142.613 13.9569C142.613 13.9569 143.455 12.5537 144.909 12.8599C146.287 13.1405 146.771 14.6202 146.771 14.6202V11.2526L145.802 10.4107C144.73 11.4822 142.843 13.0129 142.613 13.9569ZM143.991 16.5336C143.71 16.6101 142.536 16.3295 142.256 15.1049C141.975 13.9314 142.817 13.115 144.042 11.8649L142.562 10.5128V7.96159C142.562 7.96159 143.633 7.42584 144.475 6.89009C145.317 6.35434 146.185 5.79308 146.185 5.79308C146.185 5.79308 146.822 6.58395 147.537 6.53292C148.659 6.43087 148.608 5.56347 148.557 5.35938C148.736 5.69103 149.246 6.71151 147.307 8.98206L148.914 10.2832V13.5997C148.914 13.5997 147.052 14.5692 145.317 15.8448C145.317 15.8448 144.348 14.6202 143.48 15.207C142.919 15.5641 143.174 16.2274 143.991 16.5336Z" fill="#18191E"/>
<path d="M79.8283 12.7575L81.8947 14.6198V8.90518L79.8283 6.99179V12.7575ZM84.0632 8.0888L84.7776 7.42549L84.8796 7.55305L84.1908 8.19084V13.4718C84.1908 13.4718 82.8642 14.1861 81.9202 14.6964C81.0018 15.2321 80.0069 15.8444 80.0069 15.8444L77.5577 13.7779L76.9199 14.3392L76.8179 14.2116L77.5067 13.6249V7.96124C77.5067 7.96124 78.6547 7.451 79.6242 6.88974C80.4916 6.40501 81.461 5.84375 81.461 5.84375L84.0632 8.0888Z" fill="#18191E"/>
<path d="M88.8595 7.55121L90.4157 5.96948C90.4157 5.96948 90.6198 6.14806 90.8239 6.25011C90.926 6.30113 91.4107 6.55625 91.8444 6.30113C92.074 6.17357 92.0995 6.14806 92.3546 5.89294C92.4056 7.11751 91.8189 7.98492 91.079 8.34208C90.7729 8.49515 89.9055 8.77579 88.9615 7.65326V13.3424L89.931 14.2098L90.7474 13.521L90.8494 13.6486L88.2727 15.7916L86.3338 14.0057L85.6195 14.669L85.4919 14.5415L86.5634 13.572V8.64823L85.747 7.55121L85.0327 8.1635L84.9307 8.06145L87.4053 5.81641L88.8595 7.55121Z" fill="#18191E"/>
<path d="M95.3892 9.92614L98.2465 5.7677C98.2465 5.7677 98.6292 6.22691 99.2925 6.37998C100.185 6.60959 100.976 5.74219 100.976 5.74219C100.823 6.86471 100.262 8.11479 99.0884 8.31889C98.0679 8.49747 97.0985 7.68109 97.0985 7.68109L96.9199 7.96172L100.9 13.9825L101.691 13.2937L101.793 13.4213L99.0629 15.8194L95.3892 9.92614Z" fill="#18191E"/>
<path d="M93.0432 4.36475C93.0432 3.47184 92.686 2.91058 92.2013 2.9616L95.3392 0.767578V13.1919L96.1556 14.0593L96.7934 13.5235L96.8955 13.6511L94.3698 15.8451L92.6605 14.2379L91.9717 14.8501L91.8696 14.7226L93.0687 13.6766V4.36475" fill="#18191E"/>
<path d="M72.9655 7.85685C72.9655 7.85685 72.6084 8.23953 72.0726 8.23953C71.5369 8.23953 71.1797 7.85685 71.1797 7.85685V9.56615C71.1797 9.56615 71.5369 9.18347 72.0726 9.18347C72.6084 9.18347 72.9655 9.56615 72.9655 9.56615V7.85685ZM72.9655 4.20865L71.7665 3.13715L71.1797 3.59637V7.57622C71.1797 7.57622 71.5369 8.03544 72.0726 8.03544C72.6084 8.03544 72.9655 7.60173 72.9655 7.60173V4.20865ZM71.1797 15.5104C71.1797 15.5104 71.9195 15.7145 72.4298 15.2808C73.0166 14.7961 72.9655 14.1073 72.9655 14.1073V9.79576C72.9655 9.79576 72.6339 9.36205 72.0726 9.36205C71.5369 9.36205 71.1797 9.82127 71.1797 9.82127V15.5104ZM66.8937 4.15763C66.8937 3.31574 66.5621 2.85652 66.0008 2.83101C65.2099 2.8055 65.0058 3.92802 65.0058 3.92802C65.0058 3.92802 64.8528 3.06062 65.5926 2.26975C66.0008 1.83605 66.7661 1.22376 67.9397 1.50439C69.1643 1.81053 69.5214 2.75447 69.5214 3.59637V15.1533C69.5214 15.1533 69.9806 15.2043 70.3123 15.2808C70.6695 15.3573 71.0266 15.4594 71.0266 15.4594V1.5299H71.1797V3.41778L73.6799 1.40234L75.5167 3.0351L76.3841 2.29526L76.4862 2.42282L75.5933 3.18818V13.9287C75.5422 14.6175 75.4402 15.3318 74.7769 15.7655C73.2972 16.6329 71.5114 15.638 69.9296 15.4084C68.7561 15.2298 66.8937 15.0002 66.4345 16.0972C66.2814 16.4544 66.2814 16.9901 66.8172 17.3473C67.8887 18.0616 72.6594 16.1482 74.2922 16.9136C75.7974 17.6024 75.7718 18.6994 75.5422 19.4648C75.1596 20.8934 73.3737 21.123 73.3737 21.123C73.3737 21.123 74.2411 20.6128 74.0115 19.7709C73.884 19.3372 73.6033 19.2352 72.6594 19.3372C70.6184 19.5668 68.1693 20.5618 66.511 19.873C65.6691 19.5158 65.0568 18.4698 65.1334 17.4238C65.1844 15.9186 66.8937 15.3318 66.8937 15.3318V9.79576C66.8427 9.56615 65.9243 9.64268 65.7202 10.0509C65.414 10.6632 66.1028 10.9438 66.1028 10.9438C66.1028 10.9438 65.5416 11.0203 65.0568 10.4846C64.8272 10.2039 64.3425 9.26001 64.9803 8.3926C65.4906 7.67827 66.1283 7.55071 66.9192 7.47417V4.15763H66.8937Z" fill="#18191E"/>
</svg>
