<svg width="92" height="80" viewBox="0 0 92 80" fill="none" xmlns="http://www.w3.org/2000/svg">
<path d="M40.5 19.5L54 28.5L68.5 19.7432" stroke="#18191E" stroke-width="2" stroke-miterlimit="10"/>
<path d="M18.4639 28.3798L32 19.5" stroke="#18191E" stroke-width="2" stroke-miterlimit="10"/>
<path d="M7.81738 75H84.1322" stroke="#18191E" stroke-width="2" stroke-miterlimit="10"/>
<path d="M0 75H4.54166" stroke="#18191E" stroke-width="2" stroke-miterlimit="10"/>
<path d="M87.4082 75H91.9499" stroke="#18191E" stroke-width="2" stroke-miterlimit="10"/>
<path d="M25 46H12V75H25V46Z" stroke="#18191E" stroke-width="2" stroke-miterlimit="10"/>
<path d="M61 46H48V75H61V46Z" stroke="#18191E" stroke-width="2" stroke-miterlimit="10"/>
<path d="M43 34H30V75H43V34Z" stroke="#18191E" stroke-width="2" stroke-miterlimit="10"/>
<path d="M79 34H66V75H79V34Z" stroke="#18191E" stroke-width="2" stroke-miterlimit="10"/>
<path d="M18.4642 33.443C21.2603 33.443 23.527 31.1763 23.527 28.3802C23.527 25.5841 21.2603 23.3174 18.4642 23.3174C15.6681 23.3174 13.4014 25.5841 13.4014 28.3802C13.4014 31.1763 15.6681 33.443 18.4642 33.443Z" fill="#2854E7"/>
<path d="M54.1703 33.443C56.9664 33.443 59.2331 31.1763 59.2331 28.3802C59.2331 25.5841 56.9664 23.3174 54.1703 23.3174C51.3741 23.3174 49.1074 25.5841 49.1074 28.3802C49.1074 31.1763 51.3741 33.443 54.1703 33.443Z" fill="#2854E7"/>
<path d="M36.0628 22.1257C38.859 22.1257 41.1257 19.859 41.1257 17.0628C41.1257 14.2667 38.859 12 36.0628 12C33.2667 12 31 14.2667 31 17.0628C31 19.859 33.2667 22.1257 36.0628 22.1257Z" stroke="#18191E" stroke-width="2" stroke-miterlimit="10"/>
<path d="M72.5628 22.1257C75.359 22.1257 77.6257 19.859 77.6257 17.0628C77.6257 14.2667 75.359 12 72.5628 12C69.7667 12 67.5 14.2667 67.5 17.0628C67.5 19.859 69.7667 22.1257 72.5628 22.1257Z" stroke="#18191E" stroke-width="2" stroke-miterlimit="10"/>
</svg>
