<svg width="90" height="80" viewBox="0 0 90 80" fill="none" xmlns="http://www.w3.org/2000/svg">
<path d="M11 18.5115V11.9196C11 10.4162 12.1565 9.25977 13.6599 9.25977H20.2517" stroke="#18191E" stroke-width="2" stroke-miterlimit="10"/>
<path d="M69.748 9.25977H76.3399C77.8433 9.25977 78.9997 10.4162 78.9997 11.9196V18.5115" stroke="#18191E" stroke-width="2" stroke-miterlimit="10"/>
<path d="M78.9997 69.3955V75.9873C78.9997 77.4907 77.8433 78.6472 76.3399 78.6472H69.748" stroke="#18191E" stroke-width="2" stroke-miterlimit="10"/>
<path d="M20.2517 78.6472H13.6599C12.1565 78.6472 11 77.4907 11 75.9873V69.3955" stroke="#18191E" stroke-width="2" stroke-miterlimit="10"/>
<path d="M28.201 71.2656L30.3431 54.1673C25.2696 50.1509 22 43.9541 22 36.9541C22 30.9869 24.3676 25.4787 28.201 21.5771C32.0343 17.6755 37.4461 15.2656 43.3088 15.2656C55.1471 15.2656 64.6176 25.0197 64.6176 36.9541L68 50.9541H62.701V62.4296H52.2157V71.2656H41.5049" stroke="#18191E" stroke-width="2" stroke-miterlimit="10"/>
<path d="M76.3673 22.2653C70.4602 22.2653 65.7346 17.5397 65.7346 11.6326C65.7346 5.72562 70.4602 1 76.3673 1C82.2743 1 86.9999 5.72562 86.9999 11.6326C86.9999 17.4084 82.2743 22.2653 76.3673 22.2653Z" fill="#2854E7"/>
<path d="M72.6919 7.82617L80.1741 15.3084" stroke="white" stroke-width="2" stroke-miterlimit="10"/>
<path d="M80.1741 7.82617L72.6919 15.3084" stroke="white" stroke-width="2" stroke-miterlimit="10"/>
</svg>
