<svg width="65" height="80" viewBox="0 0 65 80" fill="none" xmlns="http://www.w3.org/2000/svg">
<path d="M3.9574 36.3017V20.8613H6.56548C9.17357 20.8613 11.3159 22.9878 11.3159 25.5767V28.9976" stroke="#18191E" stroke-width="2" stroke-miterlimit="10"/>
<path d="M14.2034 36.3018H25.474V38.8906C25.474 41.4794 23.3317 43.6059 20.7236 43.6059H16.1594" stroke="#18191E" stroke-width="2" stroke-miterlimit="10"/>
<path d="M28.3616 58.3987V57.4741C28.3616 53.8682 25.3809 50.9096 21.7482 50.9096H26.3124C28.9205 50.9096 31.0628 48.7831 31.0628 46.1943V43.6055H19.8853L14.8554 48.5982C14.1103 49.3378 13.6445 50.3549 13.6445 51.4643V59.9704" stroke="#18191E" stroke-width="2" stroke-miterlimit="10"/>
<path d="M7.77636 54.0536V44.9003C7.77636 43.5135 8.33524 42.2191 9.2667 41.2945L21.7482 28.8127C23.6112 26.9636 23.6112 24.0049 21.7482 22.1558L19.8853 20.3066L3.86424 36.3018C0.0452547 40.185 0.0452547 46.3796 3.86424 50.2628L21.2825 67.5524C22.9591 69.2166 25.1946 70.1412 27.5233 70.1412H31.9011C34.2298 70.1412 36.4653 71.0658 38.1419 72.73L42.8924 77.4453" stroke="#18191E" stroke-width="2" stroke-miterlimit="10"/>
<path d="M32.1805 36.3018L24.6357 28.8127C22.7728 26.9636 22.7728 24.0049 24.6357 22.1558L26.4986 20.3066L49.8782 43.5135C52.9521 46.5646 52.9521 51.4648 49.8782 54.5159" stroke="#18191E" stroke-width="2" stroke-miterlimit="10"/>
<path d="M23.2385 11.9854V2" stroke="#18191E" stroke-width="2" stroke-miterlimit="10"/>
<path d="M31.0627 11.9851L35.72 4.77344" stroke="#18191E" stroke-width="2" stroke-miterlimit="10"/>
<path d="M15.9732 11.9851L11.3159 4.77344" stroke="#18191E" stroke-width="2" stroke-miterlimit="10"/>
<path d="M53.6776 72.2653C47.7705 72.2653 43.0449 67.5397 43.0449 61.6326C43.0449 55.7256 47.7705 51 53.6776 51C59.5846 51 64.3102 55.7256 64.3102 61.6326C64.3102 67.4084 59.5846 72.2653 53.6776 72.2653Z" fill="#2854E7"/>
<path d="M58.5449 58L52.5449 63.9822L50.0449 61.4822" stroke="white" stroke-width="2" stroke-miterlimit="10"/>
</svg>
