<svg width="92" height="80" viewBox="0 0 92 80" fill="none" xmlns="http://www.w3.org/2000/svg">
<path d="M46.9359 34.7686L38.7639 52.1341H46.9359V60.598C46.9359 60.598 55.2539 60.1602 59.6318 53.4475" stroke="#18191E" stroke-width="2" stroke-miterlimit="10"/>
<path d="M35.2624 38.4171C36.3907 38.4171 37.3054 37.5024 37.3054 36.3741C37.3054 35.2457 36.3907 34.3311 35.2624 34.3311C34.134 34.3311 33.2194 35.2457 33.2194 36.3741C33.2194 37.5024 34.134 38.4171 35.2624 38.4171Z" fill="#18191E"/>
<path d="M56.5885 38.4171C57.7169 38.4171 58.6315 37.5024 58.6315 36.3741C58.6315 35.2457 57.7169 34.3311 56.5885 34.3311C55.4602 34.3311 54.5455 35.2457 54.5455 36.3741C54.5455 37.5024 55.4602 38.4171 56.5885 38.4171Z" fill="#18191E"/>
<path d="M16.8756 68.917L16 74.9001H76.8524L75.9768 68.917H16.8756Z" fill="#2854E7"/>
<path d="M76.8524 74.8996H16L21.8372 20.0303H71.0152L76.8524 74.8996Z" stroke="#18191E" stroke-width="2" stroke-miterlimit="10"/>
<path d="M31.4679 27.0353V19.8848C31.4679 11.7127 38.1806 5 46.3527 5C54.5247 5 61.2374 11.7127 61.2374 19.8848V27.0353" stroke="#18191E" stroke-width="2" stroke-miterlimit="10"/>
<path d="M7.81787 75H84.1349" stroke="#18191E" stroke-width="2" stroke-miterlimit="10"/>
<path d="M0 75H4.54179" stroke="#18191E" stroke-width="2" stroke-miterlimit="10"/>
<path d="M87.4108 75H91.9526" stroke="#18191E" stroke-width="2" stroke-miterlimit="10"/>
</svg>
